<svg width="16" height="16" viewBox="0 0 16 16" fill="none" xmlns="http://www.w3.org/2000/svg">
<path d="M12.9282 2.69535H6.21956V4.13352H12.9282V2.69535Z" fill="#444444"/>
<path d="M6.21956 4.96526H7.76781V5.76718H6.21956V4.96526Z" fill="#444444"/>
<path d="M12.9282 4.96526H11.38V5.76718H12.9282V4.96526Z" fill="#444444"/>
<path d="M8.79975 4.96526H10.348V5.76718H8.79975V4.96526Z" fill="#444444"/>
<path d="M7.76781 6.62827H6.21956V7.43019H7.76781V6.62827Z" fill="#444444"/>
<path d="M11.38 6.62827H12.9282V7.43019H11.38V6.62827Z" fill="#444444"/>
<path d="M10.348 6.62827H8.79975V7.43019H10.348V6.62827Z" fill="#444444"/>
<path d="M6.21956 8.29083H7.76781V9.09322H6.21956V8.29083Z" fill="#444444"/>
<path d="M12.9282 8.29083H11.38V9.09322H12.9282V8.29083Z" fill="#444444"/>
<path d="M8.79975 8.29083H10.348V9.09322H8.79975V8.29083Z" fill="#444444"/>
<path d="M11.5819 11.6976H7.75772V12.1944H11.5819V11.6976Z" fill="#444444"/>
<path d="M7.75772 13.0016H10.2465V13.4984H7.75772V13.0016Z" fill="#444444"/>
<path fill-rule="evenodd" clip-rule="evenodd" d="M16 2.85835C16 1.28217 14.7466 0 13.2061 0H2.44287C1.09584 0 0 1.12112 0 2.49913V10.9651C0 12.3431 1.09584 13.4642 2.44287 13.4642H5.85534V16H13.2924V13.4596C14.7927 13.4125 16 12.1522 16 10.6061V2.85835ZM1.21403 2.49913C1.21403 1.80443 1.76412 1.24192 2.44287 1.24192H4.12463V12.2223H2.44287C1.76412 12.2223 1.21403 11.6598 1.21403 10.9651V2.49913ZM14.786 10.6061C14.786 11.4689 14.1247 12.1716 13.2924 12.2177V10.0549H5.85534V12.2222H4.84737V1.24192H13.2061C14.0787 1.24192 14.7859 1.96523 14.7859 2.85835L14.786 10.6061ZM12.5639 15.2546H6.58375V10.8001H12.5639V15.2546Z" fill="#444444"/>
</svg>
