<svg width="13" height="16" viewBox="0 0 13 16" fill="none" xmlns="http://www.w3.org/2000/svg">
<path fill-rule="evenodd" clip-rule="evenodd" d="M6.5 0C2.88873 0 0 2.95841 0 6.56C0 8.3972 0.823926 10.0055 1.93945 11.4724C2.87052 12.6968 4.06233 13.8933 5.24791 15.0835C5.47191 15.3084 5.69569 15.5331 5.91744 15.7577C6.07042 15.9126 6.28054 16 6.5 16C6.71946 16 6.92958 15.9126 7.08256 15.7577C7.3043 15.5331 7.52807 15.3084 7.75206 15.0836L7.75209 15.0835C8.93766 13.8933 10.1295 12.6968 11.0605 11.4724C12.1761 10.0055 13 8.3972 13 6.56C13 2.95841 10.1113 0 6.5 0ZM1.625 6.56C1.625 3.79927 3.82904 1.6 6.5 1.6C9.17097 1.6 11.375 3.79927 11.375 6.56C11.375 7.90392 10.7771 9.17567 9.75976 10.5134C8.8996 11.6446 7.79873 12.7505 6.61175 13.9429C6.57458 13.9803 6.53733 14.0177 6.5 14.0552C6.46355 14.0186 6.42718 13.982 6.39089 13.9456L6.38825 13.9429C5.20127 12.7505 4.1004 11.6446 3.24024 10.5134C2.22295 9.17567 1.625 7.90392 1.625 6.56Z" fill="#444444"/>
</svg>
