<svg width="18" height="18" viewBox="0 0 18 18" fill="none" xmlns="http://www.w3.org/2000/svg">
<path d="M14.7778 16.7465C7.16853 16.7465 0.999999 10.6757 1 3.18701C1 2.84914 1.01253 2.51416 1.03724 2.18249C1.0656 1.80186 1.07973 1.61154 1.18107 1.4383C1.26498 1.29482 1.41378 1.15874 1.56533 1.08682C1.74827 0.999999 1.96169 0.999999 2.38844 0.999999L4.89271 0.999999C5.25164 0.999999 5.43111 1 5.58489 1.05813C5.7208 1.10948 5.84178 1.19288 5.93724 1.30102C6.04533 1.42343 6.10667 1.58941 6.22933 1.92135L7.26587 4.72671C7.40853 5.11291 7.47991 5.30602 7.46782 5.48923C7.45716 5.65078 7.40107 5.80624 7.30596 5.93832C7.19813 6.0881 7.01911 6.19382 6.66098 6.40525L5.44444 7.12362C6.5112 9.44176 8.4232 11.321 10.7778 12.3724L11.5077 11.1752C11.7226 10.8227 11.83 10.6465 11.9822 10.5404C12.1164 10.4468 12.2743 10.3916 12.4385 10.3811C12.6246 10.3692 12.8209 10.4395 13.2133 10.5799L16.0638 11.6C16.4011 11.7207 16.5698 11.7811 16.6941 11.8875C16.804 11.9814 16.8888 12.1005 16.9409 12.2342C17 12.3856 17 12.5622 17 12.9154L17 15.38C17 15.8 17 16.0101 16.9118 16.1901C16.8387 16.3392 16.7004 16.4857 16.5546 16.5683C16.3786 16.668 16.1852 16.6819 15.7985 16.7098C15.4615 16.7341 15.1211 16.7465 14.7778 16.7465Z" stroke="#444444" stroke-width="1.5" stroke-linecap="round" stroke-linejoin="round"/>
</svg>
