<svg width="32" height="32" viewBox="0 0 32 32"  fill="#F0E0BF" xmlns="http://www.w3.org/2000/svg">
    <path d="M31.9997 15.901C31.9623 12.8332 31.0543 9.83993 29.3826 7.27387C27.711 4.70781 25.3455 2.67578 22.5646 1.4171C19.7836 0.158419 16.7031 -0.274483 13.6858 0.169346C10.6686 0.613195 7.84015 1.91528 5.53374 3.92232C3.22732 5.92934 1.53893 8.5577 0.667403 11.4978C-0.204102 14.438 -0.222463 17.5675 0.614521 20.5178C1.45151 23.4681 3.10895 26.1162 5.39168 28.1505C7.67439 30.1848 10.4873 31.5205 13.4992 32V20.5898H9.49908V15.901H13.4992V12.3391C13.4066 11.5109 13.4958 10.6724 13.7606 9.88263C14.0254 9.09289 14.4592 8.37126 15.0314 7.76865C15.6036 7.16603 16.3003 6.69712 17.0723 6.39505C17.8443 6.09295 18.6729 5.96502 19.4993 6.02032C20.699 6.03684 21.8958 6.14449 23.0795 6.3423V10.367H21.0794C20.7346 10.3233 20.3842 10.3581 20.0546 10.4688C19.7248 10.5795 19.4239 10.7634 19.1743 11.0068C18.9247 11.2502 18.7327 11.547 18.6125 11.8751C18.4921 12.2033 18.4467 12.5544 18.4793 12.9026V15.9413H22.9194L22.1994 20.6301H18.4993V31.8994C22.2792 31.2979 25.7197 29.3531 28.1966 26.4179C30.6735 23.4826 32.0227 19.7515 31.9997 15.901Z"/>
</svg>
