<svg width="32" height="32" viewBox="0 0 32 32" xmlns="http://www.w3.org/2000/svg">
    <path d="M17.0831 0.0327725C25.2022 0.0327725 31.8451 6.67566 31.8451 14.7948V17.1012C31.8451 25.2203 25.2021 31.8632 17.0831 31.8632H14.7767C6.65757 31.8632 0.0146773 25.2203 0.0146773 17.1012V14.7948C0.0146773 6.67566 6.65757 0.0327725 14.7767 0.0327725H17.0831ZM16.2201 8.03304L16.0147 8.03277C14.3044 8.03277 12.5942 8.0893 12.5942 8.0893C10.0962 8.0893 8.07121 10.1143 8.07121 12.6123C8.07121 12.6123 8.01929 14.0808 8.01496 15.6571L8.01468 15.8632C8.01468 17.628 8.07121 19.4533 8.07121 19.4533C8.07121 21.9512 10.0962 23.9762 12.5942 23.9762C12.5942 23.9762 14.1932 24.0328 15.8451 24.0328C17.61 24.0328 19.4917 23.9762 19.4917 23.9762C21.9897 23.9762 23.9581 22.0078 23.9581 19.5098C23.9581 19.5098 24.0147 17.7051 24.0147 15.9763L24.0136 15.5705C24.006 14.0194 23.9581 12.5557 23.9581 12.5557C23.9581 10.0578 21.9897 8.0893 19.4917 8.0893C19.4917 8.0893 17.8634 8.0372 16.2201 8.03304ZM16.0147 9.47273C17.4171 9.47273 19.2152 9.51911 19.2152 9.51911C21.2636 9.51911 22.5283 10.7838 22.5283 12.8322C22.5283 12.8322 22.5747 14.5996 22.5747 15.9863C22.5747 17.404 22.5283 19.2333 22.5283 19.2333C22.5283 21.2816 21.2636 22.5463 19.2152 22.5463C19.2152 22.5463 17.6251 22.5853 16.2453 22.5918L15.8756 22.5927C14.5211 22.5927 12.8706 22.5463 12.8706 22.5463C10.8223 22.5463 9.50106 21.225 9.50106 19.1767C9.50106 19.1767 9.45468 17.3408 9.45468 15.8937C9.45468 14.5391 9.50106 12.8322 9.50106 12.8322C9.50106 10.7838 10.8224 9.51911 12.8706 9.51911C12.8706 9.51911 14.6122 9.47273 16.0147 9.47273ZM16.0146 11.9347C13.7513 11.9347 11.9166 13.7694 11.9166 16.0327C11.9166 18.296 13.7513 20.1308 16.0146 20.1308C18.2779 20.1308 20.1127 18.296 20.1127 16.0327C20.1127 13.7694 18.2779 11.9347 16.0146 11.9347ZM16.0146 13.366C17.4874 13.366 18.6813 14.5599 18.6813 16.0327C18.6813 17.5055 17.4874 18.6994 16.0146 18.6994C14.5419 18.6994 13.348 17.5055 13.348 16.0327C13.348 14.5599 14.5419 13.366 16.0146 13.366ZM20.3088 10.7975C19.7619 10.7975 19.3186 11.243 19.3186 11.7926C19.3186 12.3421 19.7619 12.7876 20.3088 12.7876C20.8556 12.7876 21.2989 12.3421 21.2989 11.7926C21.2989 11.243 20.8556 10.7975 20.3088 10.7975Z" />
</svg>
